<svg xmlns="http://www.w3.org/2000/svg" version="1.1" xmlns:xlink="http://www.w3.org/1999/xlink" xmlns:svgjs="http://svgjs.com/svgjs" width="512" height="512" x="0" y="0" viewBox="0 0 512 512" style="enable-background:new 0 0 512 512" xml:space="preserve" class=""><g><circle cx="423.53" cy="125.59" r="80.64" fill="#1e272e" data-original="#1e272e" class=""></circle><path fill="#1b2329" d="M393.38 195A80.63 80.63 0 0 0 436 45.92 80.64 80.64 0 1 1 380.87 194a82 82 0 0 0 12.51 1z" data-original="#1b2329" class=""></path><circle cx="423.53" cy="125.59" r="39.25" fill="#485460" data-original="#485460" class=""></circle><path fill="#414b56" d="M404.88 157.08a39.22 39.22 0 0 0 23.88-70.36 39.23 39.23 0 1 1-29.1 70 39.1 39.1 0 0 0 5.22.36z" data-original="#414b56" class=""></path><circle cx="88.47" cy="125.59" r="80.64" fill="#1e272e" data-original="#1e272e" class=""></circle><path fill="#1b2329" d="M118.62 195A80.63 80.63 0 0 1 76 45.92 80.64 80.64 0 1 0 131.13 194a82 82 0 0 1-12.51 1z" data-original="#1b2329" class=""></path><circle cx="88.47" cy="125.59" r="39.25" fill="#485460" data-original="#485460" class=""></circle><path fill="#414b56" d="M107.12 157.08a39.22 39.22 0 0 1-23.88-70.36 39.23 39.23 0 1 0 29.1 70 39.1 39.1 0 0 1-5.22.36z" data-original="#414b56" class=""></path><path fill="#d2dae2" d="M450.1 258.87C446.89 154.43 361.22 70.75 256 70.75S65.11 154.43 61.9 258.87C51 276.89 45 296.72 45 317.55c0 82.57 94.46 149.5 211 149.5s211-66.93 211-149.5c0-20.83-6-40.66-16.9-58.68z" data-original="#d2dae2" class=""></path><path fill="#1e272e" d="M287.25 310.53c0 7-19.14 25.3-31.25 25.3s-31.25-18.31-31.25-25.3 14-12.66 31.25-12.66 31.25 5.67 31.25 12.66z" data-original="#1e272e" class=""></path><path fill="#bdc4cb" d="M465.31 298.69C452.2 372.34 363.49 429.3 256 429.3s-196.21-57-209.31-130.61A107.45 107.45 0 0 0 45 317.55c0 82.57 94.46 149.5 211 149.5s211-66.93 211-149.5a107.45 107.45 0 0 0-1.69-18.86z" data-original="#bdc4cb"></path><path fill="#1e272e" d="M351 333.72c-43.27 0-73.4-53.43-79-81.8-8.4-42.44 65.17-42.32 65.17-42.32s72.68-2.36 72.68 49.56c0 0 5.35 74.56-58.85 74.56zM161 333.72c43.27 0 73.4-53.43 79-81.8 8.4-42.44-65.17-42.32-65.17-42.32s-72.68-2.36-72.68 49.56c0 0-5.35 74.56 58.85 74.56z" data-original="#1e272e" class=""></path><path d="M402.86 222.8c-22.46-21.74-62.64-21.11-65.8-21a143.59 143.59 0 0 0-18.42 1.35H193.36a143.59 143.59 0 0 0-18.42-1.35c-3.16-.08-43.34-.71-65.8 21-9.78 9.47-14.76 21.61-14.82 36.1-.24 4-1.81 40.71 19.89 64 11.51 12.36 27.24 18.63 46.77 18.63 22.51 0 41.57-12.65 56.12-29.18 1.72 9.66 16 24.09 29.51 29.31a37.26 37.26 0 0 1-12.42 17.6c-11.48 8.83-28.72 11.26-51.21 7.23a7.83 7.83 0 1 0-2.76 15.41 126.44 126.44 0 0 0 22.27 2.13c16.73 0 30.55-4.13 41.24-12.35A51.21 51.21 0 0 0 256 358.17a51.21 51.21 0 0 0 12.27 13.53c10.7 8.22 24.51 12.35 41.24 12.35a126.44 126.44 0 0 0 22.27-2.13 7.83 7.83 0 1 0-2.78-15.41c-22.37 4-39.53 1.63-51-7.08a37 37 0 0 1-12.64-17.74c13.5-5.21 27.82-19.66 29.54-29.32 14.55 16.53 33.61 29.18 56.12 29.18 19.53 0 35.26-6.27 46.77-18.63 21.7-23.31 20.13-60 19.89-64-.06-14.51-5.04-26.65-14.82-36.12zm-126.4-4a39.71 39.71 0 0 0-5.36 5.33 33.61 33.61 0 0 0-2.59 3.65h-25a33.61 33.61 0 0 0-2.59-3.65 39.71 39.71 0 0 0-5.36-5.33zM161 325.89c-15 0-26.88-4.58-35.31-13.64-17.9-19.25-15.76-52.2-15.69-52.53s0-.37 0-.56c0-10.35 3.29-18.56 10.06-25.11 18.17-17.59 54.16-16.64 54.53-16.63h.27c11.21 0 42.76 3 54 16.64 3.65 4.45 4.79 9.79 3.5 16.33-5.36 27.11-33.83 75.5-71.36 75.5zm95 2.11c-7 0-20.23-11.74-23-17.06 2.26-1.83 9.83-5.24 23-5.24s20.78 3.41 23 5.24c-2.77 5.32-16 17.06-23 17.06zm0-38c-9.06 0-18.45 1.49-25.75 4.61 9.2-14.7 15.21-30 17.43-41.21a39.57 39.57 0 0 0 .69-10h15.26a39.57 39.57 0 0 0 .69 10c2.22 11.22 8.23 26.51 17.43 41.21-7.3-3.08-16.69-4.61-25.75-4.61zm130.33 22.21c-8.43 9.1-20.33 13.68-35.33 13.68-37.55 0-66-48.39-71.34-75.49-1.29-6.54-.15-11.88 3.5-16.33 11.22-13.65 42.77-16.64 54-16.64h.27c.37 0 36.36-1 54.53 16.63 6.77 6.55 10.06 14.76 10.06 25.11v.56s2.19 33.27-15.69 52.52zM512 125.59a88.48 88.48 0 0 0-166.44-41.82 202.77 202.77 0 0 0-179.12 0 88.47 88.47 0 1 0-104.88 126.1 202.47 202.47 0 0 0-7.41 46.73c-11.26 19.3-17 39.8-17 60.95 0 86.75 98.16 157.33 218.81 157.33s218.85-70.58 218.85-157.33c0-21.15-5.7-41.65-17-60.95a202.47 202.47 0 0 0-7.41-46.73 89 89 0 0 0 61.6-84.28zm-496.34 0a72.79 72.79 0 0 1 137-34.3 201.83 201.83 0 0 0-21.4 14.71A47.07 47.07 0 1 0 77 171.24 198 198 0 0 0 66.4 195a73.23 73.23 0 0 1-50.74-69.41zm103-8.76c-1.14 1-2.26 2.12-3.38 3.2a203.55 203.55 0 0 0-30 36.82 31.43 31.43 0 1 1 33.36-40zm340.49 200.72c0 78.12-91.13 141.67-203.15 141.67S52.85 395.67 52.85 317.55c0-18.91 5.3-37.29 15.76-54.63a7.86 7.86 0 0 0 1.12-3.81C72.84 157.88 154.66 78.58 256 78.58s183.16 79.3 186.27 180.53a7.86 7.86 0 0 0 1.12 3.81c10.46 17.34 15.76 35.72 15.76 54.63zm-65.77-200.72a31.41 31.41 0 1 1 33.36 40 203.55 203.55 0 0 0-30-36.82c-1.1-1.01-2.22-2.13-3.36-3.18zM445.6 195a198 198 0 0 0-10.55-23.74A47.08 47.08 0 1 0 380.74 106a201.83 201.83 0 0 0-21.41-14.73A72.8 72.8 0 1 1 445.6 195z" fill="#000000" data-original="#000000" class=""></path></g></svg>