<svg xmlns="http://www.w3.org/2000/svg" version="1.1" xmlns:xlink="http://www.w3.org/1999/xlink" xmlns:svgjs="http://svgjs.com/svgjs" width="512" height="512" x="0" y="0" viewBox="0 0 64 64" style="enable-background:new 0 0 512 512" xml:space="preserve" fill-rule="evenodd"><g><circle cx="32" cy="32" r="17" fill="#ffb43f" data-original="#ffb43f"></circle><path fill="#41466e" d="M32 15c-9.383 0-17 7.617-17 17s7.617 17 17 17zM29.161 5.839v4.598a2.84 2.84 0 0 0 5.678 0V5.839a2.84 2.84 0 0 0-5.678 0z" data-original="#41466e"></path><path fill="#ff8645" d="M32 3a2.84 2.84 0 0 0-2.839 2.839v4.598A2.84 2.84 0 0 0 32 13.276z" data-original="#ff8645"></path><path fill="#41466e" d="m48.491 11.494-3.251 3.251c-1.108 1.108-1.108 2.907 0 4.015s2.907 1.108 4.015 0l3.251-3.251c1.108-1.108 1.108-2.907 0-4.015s-2.907-1.108-4.015 0zM58.161 29.161h-4.598a2.84 2.84 0 0 0 0 5.678h4.598a2.84 2.84 0 0 0 0-5.678zM52.506 48.491l-3.251-3.251c-1.108-1.108-2.907-1.108-4.015 0s-1.108 2.907 0 4.015l3.251 3.251c1.108 1.108 2.907 1.108 4.015 0s1.108-2.907 0-4.015zM34.839 58.161v-4.598a2.84 2.84 0 0 0-5.678 0v4.598a2.84 2.84 0 0 0 5.678 0z" data-original="#41466e"></path><path fill="#ff8645" d="M32 50.724a2.84 2.84 0 0 0-2.839 2.839v4.598A2.84 2.84 0 0 0 32 61zM15.509 52.506l3.251-3.251c1.108-1.108 1.108-2.907 0-4.015s-2.907-1.108-4.015 0l-3.251 3.251c-1.108 1.108-1.108 2.907 0 4.015s2.907 1.108 4.015 0zM5.839 34.839h4.598a2.84 2.84 0 0 0 0-5.678H5.839a2.84 2.84 0 0 0 0 5.678zM11.494 15.509l3.251 3.251c1.108 1.108 2.907 1.108 4.015 0s1.108-2.907 0-4.015l-3.251-3.251c-1.108-1.108-2.907-1.108-4.015 0s-1.108 2.907 0 4.015z" data-original="#ff8645"></path><g fill="#00013f"><path d="M32 15c-9.383 0-17 7.617-17 17s7.617 17 17 17 17-7.617 17-17-7.617-17-17-17zm0 2c8.279 0 15 6.721 15 15s-6.721 15-15 15-15-6.721-15-15 6.721-15 15-15z" fill="#00013f" data-original="#00013f"></path><path d="M42.428 38.203a11.996 11.996 0 0 1-1.109 1.566.5.5 0 1 0 .767.641c.451-.54.851-1.106 1.202-1.695a.5.5 0 0 0-.86-.512zm1.411-3.555a12.203 12.203 0 0 1-.564 1.834.5.5 0 1 0 .93.369c.257-.648.46-1.312.61-1.986a.5.5 0 0 0-.976-.217zm.234-3.819c.061.638.072 1.279.033 1.919a.5.5 0 1 0 .998.061c.043-.692.031-1.386-.036-2.076a.5.5 0 1 0-.995.096zm-.961-3.703c.258.59.467 1.196.627 1.813a.5.5 0 0 0 .968-.251c-.173-.668-.4-1.325-.679-1.963a.5.5 0 1 0-.916.401zm-2.071-3.216c.433.484.821.994 1.164 1.526a.5.5 0 1 0 .84-.542c-.37-.575-.79-1.128-1.26-1.651a.5.5 0 1 0-.744.667zM31 16v31.998a1 1 0 0 0 2 0V16a1 1 0 0 0-2 0zM29.161 5.839v4.598a2.84 2.84 0 0 0 5.678 0V5.839a2.84 2.84 0 0 0-5.678 0zm2 0a.84.84 0 0 1 1.678 0v4.598a.84.84 0 0 1-1.678 0zM48.491 11.494l-3.251 3.251c-1.108 1.108-1.108 2.907 0 4.015s2.907 1.108 4.015 0l3.251-3.251c1.108-1.108 1.108-2.907 0-4.015s-2.907-1.108-4.015 0zm1.414 1.414a.84.84 0 0 1 1.187 0 .84.84 0 0 1 0 1.187l-3.251 3.251c-.328.327-.86.327-1.187 0s-.327-.859 0-1.187l3.251-3.251zM58.161 29.161h-4.598a2.84 2.84 0 0 0 0 5.678h4.598a2.84 2.84 0 0 0 0-5.678zm0 2a.84.84 0 0 1 0 1.678h-4.598a.84.84 0 0 1 0-1.678zM52.506 48.491l-3.251-3.251c-1.108-1.108-2.907-1.108-4.015 0s-1.108 2.907 0 4.015l3.251 3.251c1.108 1.108 2.907 1.108 4.015 0s1.108-2.907 0-4.015zm-1.414 1.414a.84.84 0 0 1 0 1.187.84.84 0 0 1-1.187 0l-3.251-3.251c-.327-.328-.327-.86 0-1.187s.859-.327 1.187 0zM34.839 58.161v-4.598a2.84 2.84 0 0 0-5.678 0v4.598a2.84 2.84 0 0 0 5.678 0zm-2 0a.84.84 0 0 1-1.678 0v-4.598a.84.84 0 0 1 1.678 0zM15.509 52.506l3.251-3.251c1.108-1.108 1.108-2.907 0-4.015s-2.907-1.108-4.015 0l-3.251 3.251c-1.108 1.108-1.108 2.907 0 4.015s2.907 1.108 4.015 0zm-1.414-1.414a.84.84 0 0 1-1.187 0 .84.84 0 0 1 0-1.187l3.251-3.251c.328-.327.86-.327 1.187 0s.327.859 0 1.187l-3.251 3.251zM5.839 34.839h4.598a2.84 2.84 0 0 0 0-5.678H5.839a2.84 2.84 0 0 0 0 5.678zm0-2a.84.84 0 0 1 0-1.678h4.598a.84.84 0 0 1 0 1.678zM11.494 15.509l3.251 3.251c1.108 1.108 2.907 1.108 4.015 0s1.108-2.907 0-4.015l-3.251-3.251c-1.108-1.108-2.907-1.108-4.015 0s-1.108 2.907 0 4.015zm1.414-1.414a.84.84 0 0 1 0-1.187.84.84 0 0 1 1.187 0l3.251 3.251c.327.328.327.86 0 1.187s-.859.327-1.187 0l-3.251-3.251z" fill="#00013f" data-original="#00013f"></path></g></g></svg>